<?xml version="1.0" standalone="no"?>
<!DOCTYPE svg PUBLIC "-//W3C//DTD SVG 20010904//EN"
 "http://www.w3.org/TR/2001/REC-SVG-20010904/DTD/svg10.dtd">
<svg version="1.0" xmlns="http://www.w3.org/2000/svg"
 width="32.000000pt" height="32.000000pt" viewBox="0 0 32.000000 32.000000"
 preserveAspectRatio="xMidYMid meet" >

<g transform="translate(0.000000,32.000000) scale(0.100000,-0.100000)"
fill="#b433ff" stroke="none">
<path d="M145 302 c-8 -26 -51 -45 -74 -32 -23 12 -33 2 -21 -21 13 -23 -6
-66 -32 -74 -23 -8 -23 -22 0 -30 26 -8 45 -51 32 -74 -12 -23 -2 -33 21 -21
23 13 66 -6 74 -32 8 -23 22 -23 30 0 8 26 51 45 74 32 23 -12 33 -2 21 21
-13 23 6 66 32 74 23 8 23 22 0 30 -26 8 -45 51 -32 74 12 23 2 33 -21 21 -23
-13 -66 6 -74 32 -4 10 -10 18 -15 18 -5 0 -11 -8 -15 -18z m76 -81 c39 -40
39 -82 0 -122 -20 -20 -39 -29 -61 -29 -22 0 -41 9 -61 29 -39 40 -39 82 0
122 20 20 39 29 61 29 22 0 41 -9 61 -29z"/>
<path d="M112 160 l1 -65 7 55 c4 30 8 51 9 45 1 -5 20 -30 41 -55 l40 -45 -2
65 -1 65 -7 -55 c-4 -30 -8 -50 -9 -45 -1 6 -20 30 -41 55 l-40 45 2 -65z"/>
</g>
</svg>
